<svg xmlns="http://www.w3.org/2000/svg" viewBox="0 0 100 100">
  <defs>
    <linearGradient id="bg" x1="0" y1="0" x2="0" y2="1">
      <stop offset="0%" stop-color="#1a1a2e"/>
      <stop offset="100%" stop-color="#16213e"/>
    </linearGradient>
    <linearGradient id="rocket" x1="0" y1="0" x2="0" y2="1">
      <stop offset="0%" stop-color="#e94560"/>
      <stop offset="100%" stop-color="#0f3460"/>
    </linearGradient>
  </defs>
  <rect width="100" height="100" rx="22" fill="url(#bg)"/>
  <!-- Grid of dots -->
  <g opacity="0.6">
    <circle cx="25" cy="30" r="5" fill="#e94560"/>
    <circle cx="40" cy="30" r="5" fill="#0f3460"/>
    <circle cx="55" cy="30" r="5" fill="#533483"/>
    <circle cx="70" cy="30" r="5" fill="#e94560"/>
    <circle cx="25" cy="45" r="5" fill="#533483"/>
    <circle cx="40" cy="45" r="5" fill="#e94560"/>
    <circle cx="55" cy="45" r="5" fill="#0f3460"/>
    <circle cx="70" cy="45" r="5" fill="#533483"/>
    <circle cx="25" cy="60" r="5" fill="#0f3460"/>
    <circle cx="40" cy="60" r="5" fill="#533483"/>
    <circle cx="55" cy="60" r="5" fill="#e94560"/>
    <circle cx="70" cy="60" r="5" fill="#0f3460"/>
  </g>
  <!-- Rocket icon -->
  <g transform="translate(38, 62) scale(0.5)">
    <path d="M24 4C24 4 18 10 18 24C18 30 14 36 14 36L34 36C34 36 30 30 30 24C30 10 24 4 24 4Z" fill="url(#rocket)" opacity="0.8"/>
    <circle cx="24" cy="20" r="3" fill="white" opacity="0.8"/>
    <path d="M14 36L10 42L24 38L24 38Z" fill="#e94560" opacity="0.6"/>
    <path d="M34 36L38 42L24 38L24 38Z" fill="#e94560" opacity="0.6"/>
  </g>
</svg>
