<svg width="256" height="256" viewBox="0 0 256 256" fill="none" xmlns="http://www.w3.org/2000/svg"><circle cx="128" cy="128" r="112" fill="white"/><path d="M128 48C172.183 48 208 83.8172 208 128C208 100 160 88 128 88C96 88 48 100 48 128C48 83.8172 83.8172 48 128 48Z" fill="#32D74B"/><path d="M208 128C208 172.183 172.183 208 128 208C160 208 184 176 184 128C184 80 160 48 128 48C172.183 48 208 83.8172 208 128Z" fill="#FFD60A"/><path d="M128 208C83.8172 208 48 172.183 48 128C48 160 96 176 128 176C160 176 208 160 208 128C208 172.183 172.183 208 128 208Z" fill="#FF9F0A"/><path d="M48 128C48 83.8172 83.8172 48 128 48C96 48 64 80 64 128C64 176 96 208 128 208C83.8172 208 48 172.183 48 128Z" fill="#FF375F"/></svg>